<svg xmlns="http://www.w3.org/2000/svg" width="148" height="148" fill="none"><path fill="#E44D26" d="M31.116 136.113 21.574 29.085h104.852l-9.552 107.011L73.936 148z"/><path fill="#F16529" d="m74 138.901 34.696-9.619 8.163-91.446H74z"/><path fill="#EBEBEB" d="M74 77.532H56.63l-1.2-13.442H74V50.963H41.085l.314 3.522 3.226 36.173H74zM74 111.622l-.058.016-14.619-3.948-.934-10.469H45.212l1.839 20.611 26.888 7.464.06-.017z"/><path fill="#000" d="M31.33 0H38v6.59h6.102V0h6.67v19.958h-6.67v-6.683H38v6.683h-6.67zM59.545 6.618h-5.872V0h18.419v6.618h-5.876v13.34h-6.67zM75.015 0h6.956l4.278 7.013L90.524 0h6.958v19.958h-6.643v-9.892l-4.59 7.096h-.114l-4.593-7.096v9.892h-6.527zM100.802 0h6.672v13.361h9.381v6.597h-16.053z"/><path fill="#fff" d="M73.955 77.532v13.126h16.163l-1.523 17.024-14.64 3.951v13.657l26.91-7.458.197-2.218 3.085-34.558.32-3.525H73.955M73.955 50.963V64.09h31.706000000000003l.264-2.95.598-6.655.314-3.522z"/></svg>