<svg xmlns="http://www.w3.org/2000/svg" width="447" height="100" fill="none"><g clip-path="url(#a)"><path fill="#2B2C30" d="M87.401 0H12.486C5.59 0 0 5.596 0 12.5v75C0 94.403 5.59 100 12.486 100H87.4c6.895 0 12.486-5.597 12.486-12.5v-75C99.887 5.596 94.297 0 87.4 0"/><path fill="#fff" d="M78.886 44.869a3.12 3.12 0 0 0-4.414 0L48.427 70.944l-3.534-3.538-7.06 7.069 3.533 3.538 4.857 4.862a3.12 3.12 0 0 0 4.413 0L76.683 56.8l3.533 3.538 7.061-7.07zM23.705 60.338l7.06-7.069-3.533-3.538L48.42 28.52l3.534 3.537 7.06-7.068-8.384-8.394a3.12 3.12 0 0 0-4.414 0L15.32 47.519a3.13 3.13 0 0 0 0 4.419l8.385 8.393zM64.758 30.725a3.12 3.12 0 0 0-4.414 0L27.238 63.87l7.06 7.069L62.555 42.65l3.534 3.538 7.06-7.07z"/><path fill="#2B2C30" fill-rule="evenodd" d="M338.43 37.59c4.001 0 7.367 1.65 10.089 4.955V28.58c-1.923-.795-3.751-1.38-5.494-1.76a25 25 0 0 0-5.314-.565q-4.742-.001-9.065 1.76t-7.597 4.895c-2.182 2.09-3.92 4.575-5.224 7.46-1.298 2.885-1.953 6.055-1.953 9.52q0 5.196 1.983 9.575 1.98 4.386 5.254 7.58A23.5 23.5 0 0 0 328.676 72a23.4 23.4 0 0 0 8.975 1.76c1.524 0 3.062-.15 4.625-.45q2.343-.449 5.045-1.4l1.198-.42V57.645q-4.501 4.776-10.148 4.775c-1.724 0-3.322-.32-4.806-.955a12 12 0 0 1-3.87-2.625 12 12 0 0 1-2.582-3.94c-.62-1.51-.929-3.165-.929-4.955s.309-3.38.929-4.895c.619-1.51 1.473-2.815 2.552-3.91s2.372-1.96 3.87-2.595c1.504-.635 3.132-.955 4.895-.955m-129.781-4.845c0 3.435-2.802 6.215-6.253 6.215s-6.253-2.785-6.253-6.215 2.801-6.215 6.253-6.215 6.253 2.785 6.253 6.215m29.812 19.045c-1.883-1.275-3.781-1.91-5.704-1.91a7.9 7.9 0 0 0-2.912.535 7.3 7.3 0 0 0-2.372 1.52 7.1 7.1 0 0 0-1.593 2.325q-.57 1.343-.569 3.015c0 1.115.189 2.06.569 2.955q.568 1.343 1.563 2.325a6.8 6.8 0 0 0 2.372 1.52c.919.36 1.903.535 2.942.535 2.043 0 3.941-.695 5.704-2.09v9.19q-4.023 1.731-7.627 1.73-3.365-.001-6.393-1.135a16.2 16.2 0 0 1-5.344-3.255c-1.538-1.41-2.771-3.105-3.69-5.07-.919-1.97-1.379-4.165-1.379-6.595s.44-4.645 1.319-6.655 2.082-3.74 3.601-5.19q2.278-2.176 5.434-3.4 3.151-1.224 6.752-1.225 3.963-.001 7.327 1.67v9.205m-90.245-9.905h-10.868v30.61h10.868V57.4q0-2.446.389-3.97.39-1.523 1.079-2.385.689-.864 1.593-1.165.899-.3 1.923-.3c.799 0 1.503.11 2.103.33.599.22 1.089.625 1.473 1.225.38.595.67 1.405.87 2.415q.299 1.524.299 3.85v15.095h10.868V57.4q.001-7.581 5.224-7.58.958 0 1.803.3c.56.2 1.049.575 1.474 1.135q.629.832.959 2.325t.329 3.82v15.095h10.868v-19.87q0-3.045-.809-5.19c-.539-1.43-1.274-2.595-2.193-3.49s-2.022-1.55-3.301-1.97c-1.283-.42-2.642-.625-4.085-.625q-6.786 0-10.449 5.79-3.602-5.73-10.448-5.73-5.52-.001-9.969 4.235zm59.564 30.61v-30.61h-10.868v30.61zm48.986-30.615h-10.869v30.615h10.869v-13.13c0-2.865.629-5.04 1.893-6.535 1.263-1.49 3.151-2.24 5.673-2.24 1.683 0 3.242.36 4.685 1.075V41.34a6.6 6.6 0 0 0-1.169-.12h-.929c-2.242 0-4.2.485-5.883 1.46s-3.101 2.375-4.265 4.205V41.87zm26.94 17.99q-.57-1.282-.57-2.835 0-1.432.57-2.685a7.7 7.7 0 0 1 1.503-2.21 6.6 6.6 0 0 1 2.223-1.49 7 7 0 0 1 2.731-.535c.959 0 1.874.18 2.733.535.859.36 1.603.855 2.222 1.49a7.6 7.6 0 0 1 1.504 2.24q.569 1.282.569 2.715c0 .955-.19 1.92-.569 2.775q-.568 1.281-1.504 2.24a6.5 6.5 0 0 1-2.222 1.49 7 7 0 0 1-2.733.535c-.958 0-1.872-.18-2.731-.535a6.65 6.65 0 0 1-2.223-1.49 7.6 7.6 0 0 1-1.503-2.24m-12.037-2.955c0-2.27.46-4.385 1.379-6.355a15.6 15.6 0 0 1 3.84-5.13q2.458-2.176 5.854-3.43 3.393-1.254 7.416-1.255c2.683 0 5.095.41 7.358 1.225q3.395 1.224 5.883 3.4a15.2 15.2 0 0 1 3.871 5.19c.919 2.01 1.378 4.225 1.378 6.655s-.469 4.645-1.413 6.655a15.8 15.8 0 0 1-3.871 5.19c-1.643 1.45-3.611 2.575-5.913 3.37q-3.454 1.194-7.477 1.195c-2.682 0-5.085-.4-7.327-1.195q-3.365-1.194-5.794-3.4c-1.623-1.47-2.891-3.235-3.81-5.28-.919-2.05-1.379-4.325-1.379-6.835zm82.259 15.575 7.687-44.995h11.647l9.065 23.99 9.005-23.99h11.647l7.686 44.995h-11.707l-3.9-25.9-10.688 25.9h-4.685l-10.149-25.9-3.906 25.9h-11.707zm82.699-35.775c1.283.495 2.562 1.265 3.84 2.295l4.685-9.13a31 31 0 0 0-7.027-2.715q-3.663-.924-7.027-.925-3.605.001-6.513 1.075c-1.943.715-3.581 1.72-4.925 3.015-1.338 1.295-2.382 2.845-3.121 4.655q-1.11 2.716-1.109 6.055c0 2.225.349 4.07 1.049 5.52.699 1.45 1.623 2.655 2.762 3.61 1.138.955 2.442 1.72 3.9 2.3a62 62 0 0 0 4.476 1.58 71 71 0 0 1 3.271 1.195c.899.36 1.633.745 2.193 1.165.559.415.959.875 1.198 1.37.24.495.36 1.085.36 1.76q.001 1.672-1.414 2.985-1.41 1.311-4.295 1.31c-1.683 0-3.381-.38-5.105-1.135-1.723-.755-3.461-1.91-5.224-3.46l-5.044 9.43q7.327 5.07 15.913 5.07 4.143-.001 7.416-1.105c2.183-.735 4.021-1.77 5.524-3.105a13 13 0 0 0 3.421-4.805Q447 61.919 447 58.46q.001-5.13-2.672-8.325-2.675-3.195-8.436-5.1a70 70 0 0 0-2.911-.895 16 16 0 0 1-2.642-.985c-.779-.38-1.414-.825-1.893-1.345-.48-.515-.719-1.175-.719-1.97q-.001-1.733 1.443-2.805 1.44-1.074 3.721-1.075c1.198 0 2.442.25 3.721.745z" clip-rule="evenodd"/></g><defs><clipPath id="a"><path fill="#fff" d="M0 0h447v100H0z"/></clipPath></defs></svg>