<svg xmlns="http://www.w3.org/2000/svg" width="363" height="74" fill="none"><g fill="#000" clip-path="url(#a)"><path d="M241.311.03h63.229v11.718h-25.082v61.64h-12.542v-61.64h-25.605zM137.324.03v11.718H86.643v18.848H127.4v11.717H86.643v19.359h50.681v11.717H74.102V11.748h-.006V.03zM168.896.061h-16.412L211.27 73.42h16.46l-29.397-36.654L227.683.117 211.27.143l-21.154 26.376zM185.738 52.461l-8.219-10.26-25.082 31.274h16.459z"/><path fill-rule="evenodd" d="M74.541 73.389 15.676 0H0v73.358h12.541V15.68L58.786 73.39z" clip-rule="evenodd"/><path d="M307.359 72.94c-.919 0-1.7-.319-2.354-.958a3.09 3.09 0 0 1-.969-2.329q-.013-1.336.969-2.295a3.24 3.24 0 0 1 2.354-.958c.883 0 1.656.32 2.31.958.664.64.995 1.404 1.004 2.295a3.2 3.2 0 0 1-.468 1.657 3.4 3.4 0 0 1-1.215 1.185 3.13 3.13 0 0 1-1.631.445M328.764 42.037h5.557v21.496c-.008 1.976-.434 3.666-1.266 5.086-.841 1.421-2.005 2.505-3.501 3.27-1.487.757-3.229 1.144-5.209 1.144-1.81 0-3.433-.328-4.877-.967-1.445-.639-2.592-1.597-3.433-2.858-.85-1.261-1.267-2.833-1.267-4.716h5.567c.008.823.195 1.538.552 2.135.356.597.849 1.05 1.478 1.37q.956.48 2.192.48c.893 0 1.658-.186 2.278-.564q.93-.555 1.428-1.664c.322-.732.493-1.64.501-2.716zM357.187 50.444c-.135-1.303-.73-2.32-1.767-3.044q-1.567-1.093-4.053-1.092c-1.164 0-2.166.176-2.999.52-.833.354-1.479.825-1.921 1.422-.442.596-.663 1.278-.68 2.042 0 .64.153 1.194.45 1.657.298.47.697.866 1.216 1.185a8 8 0 0 0 1.699.815q.944.329 1.886.555l2.898.715c1.164.269 2.295.63 3.374 1.093a12 12 0 0 1 2.914 1.732 7.76 7.76 0 0 1 2.04 2.522c.501.983.756 2.135.756 3.463 0 1.79-.459 3.363-1.386 4.725-.926 1.353-2.26 2.413-4.01 3.178-1.742.756-3.849 1.143-6.33 1.143-2.397 0-4.487-.37-6.246-1.11-1.767-.731-3.145-1.807-4.139-3.22q-1.49-2.12-1.606-5.161h5.507c.077 1.059.417 1.942.994 2.656.586.706 1.351 1.228 2.286 1.58.944.345 1.997.522 3.161.522 1.215 0 2.286-.185 3.212-.546.917-.362 1.64-.866 2.158-1.522q.789-.973.799-2.287c-.008-.798-.247-1.463-.705-1.984q-.701-.781-1.938-1.311a20 20 0 0 0-2.906-.95l-3.517-.891c-2.541-.648-4.555-1.631-6.026-2.951-1.478-1.32-2.209-3.069-2.209-5.263 0-1.799.493-3.38 1.488-4.733.985-1.353 2.336-2.404 4.044-3.152 1.717-.757 3.654-1.127 5.812-1.127 2.193 0 4.113.37 5.77 1.127q2.486 1.124 3.9 3.118c.944 1.329 1.437 2.85 1.462 4.574z"/></g><defs><clipPath id="a"><path fill="#fff" d="M0 0h363v74H0z"/></clipPath></defs></svg>