<svg xmlns="http://www.w3.org/2000/svg" width="141" height="71" fill="none"><path fill="#000" d="M10.686 15.795h20.028q8.817.075 12.779 5.117 3.96 5.041 2.615 13.773-.522 3.99-2.316 7.827-1.72 3.838-4.783 6.924-3.736 3.912-7.996 4.967a36.6 36.6 0 0 1-8.818 1.054h-8.968l-2.84 14.3H0zm8.744 8.58-4.484 22.577q.449.075.897.076h1.046q7.175.075 11.957-1.43 4.782-1.58 6.427-10.988 1.344-7.902-2.69-9.107-3.962-1.203-9.94-1.129-.896.076-1.719.076h-1.569zM57.941 1.42h10.313l-2.915 14.375h9.267q7.622.15 11.359 3.16 3.81 3.011 2.242 11.44L83.2 55.457H72.738l4.782-23.933q.747-3.764-.448-5.343t-5.156-1.58l-8.295-.076-6.128 30.932H47.18zM99.28 15.795h20.029q8.817.075 12.778 5.117t2.616 13.773q-.523 3.99-2.317 7.827-1.718 3.838-4.782 6.924-3.737 3.912-7.997 4.967a36.6 36.6 0 0 1-8.818 1.054h-8.967l-2.84 14.3H88.594zm8.744 8.58-4.484 22.577q.448.075.897.076h1.046q7.175.075 11.957-1.43 4.782-1.58 6.427-10.988 1.345-7.902-2.69-9.107-3.96-1.203-9.939-1.129a21 21 0 0 1-1.719.076h-1.569z"/></svg>