<svg xmlns="http://www.w3.org/2000/svg" width="123" height="109" fill="none"><g fill="#61DAFB" clip-path="url(#a)"><path d="M101.127 35.331a85 85 0 0 0-3.957-1.246q.331-1.343.615-2.696c2.995-14.488 1.038-26.164-5.658-30.01-6.417-3.685-16.91.16-27.51 9.349a78 78 0 0 0-3.058 2.796 72 72 0 0 0-2.032-1.875C48.414 1.832 37.274-2.3 30.59 1.545c-6.402 3.696-8.3 14.674-5.616 28.406a98 98 0 0 0 .91 4.059 85 85 0 0 0-4.546 1.428C8.316 39.965 0 47.05 0 54.4c0 7.59 8.93 15.207 22.493 19.815q1.647.564 3.326 1.044a76 76 0 0 0-.962 4.368c-2.578 13.492-.567 24.209 5.829 27.884 6.599 3.793 17.68-.106 28.477-9.502a59 59 0 0 0 2.567-2.355 78 78 0 0 0 3.316 3.026c10.46 8.959 20.781 12.57 27.167 8.895 6.604-3.808 8.749-15.319 5.962-29.323a73 73 0 0 0-.738-3.27 75 75 0 0 0 2.29-.709C113.827 69.619 123 62.093 123 54.4c0-7.382-8.583-14.515-21.873-19.069M68.077 14.68c9.081-7.873 17.568-10.973 21.446-8.757 4.117 2.365 5.711 11.905 3.123 24.417a62 62 0 0 1-.551 2.434 126 126 0 0 0-16.45-2.588 123 123 0 0 0-10.401-12.928q1.38-1.32 2.823-2.578zM36.313 60.67a152 152 0 0 0 3.492 6.338 156 156 0 0 0 3.861 6.301 112 112 0 0 1-11.337-1.81c1.09-3.5 2.427-7.138 3.99-10.824zm0-12.305a115 115 0 0 1-3.904-10.6c3.503-.783 7.246-1.422 11.145-1.907a147 147 0 0 0-3.77 6.18 144 144 0 0 0-3.471 6.327m2.791 6.158a145 145 0 0 1 5.241-9.876 141 141 0 0 1 5.958-9.454c3.658-.277 7.406-.427 11.198-.427 3.808 0 7.562.15 11.22.427a157 157 0 0 1 5.925 9.428 171 171 0 0 1 5.305 9.827 156 156 0 0 1-5.284 9.918 171 171 0 0 1-5.903 9.481 155 155 0 0 1-11.263.395 171 171 0 0 1-11.134-.352 147 147 0 0 1-6.011-9.497 151 151 0 0 1-5.252-9.876zm44.12 12.464a174 174 0 0 0 3.561-6.499 111 111 0 0 1 4.129 10.781 112 112 0 0 1-11.471 1.944 191 191 0 0 0 3.776-6.232zM86.73 48.37a185 185 0 0 0-3.53-6.37 174 174 0 0 0-3.743-6.126c3.92.496 7.68 1.15 11.214 1.955a111 111 0 0 1-3.941 10.541M61.554 21.013a112 112 0 0 1 7.24 8.704q-7.261-.347-14.535 0c2.39-3.143 4.834-6.062 7.294-8.704M33.23 6.073c4.118-2.371 13.21 1.011 22.804 9.497q.922.814 1.845 1.693a125.5 125.5 0 0 0-10.482 12.923 129 129 0 0 0-16.407 2.54 74 74 0 0 1-.845-3.781v.01C27.83 17.183 29.365 8.31 33.23 6.083zm-6.01 64.147a69 69 0 0 1-3.027-.943A44.6 44.6 0 0 1 9.84 61.681a10.8 10.8 0 0 1-3.05-3.17 10.8 10.8 0 0 1-1.533-4.116c0-4.459 6.674-10.147 17.808-14.01a70 70 0 0 1 4.236-1.33 125 125 0 0 0 5.99 15.468 127 127 0 0 0-6.065 15.692zm28.482 23.863a44.5 44.5 0 0 1-13.77 8.576 10.9 10.9 0 0 1-4.277 1.054 10.9 10.9 0 0 1-4.344-.724c-3.878-2.237-5.493-10.834-3.295-22.372a78 78 0 0 1 .899-4.069 124 124 0 0 0 16.578 2.386 127.5 127.5 0 0 0 10.557 12.997 64 64 0 0 1-2.343 2.147zm6-5.923c-2.492-2.674-4.973-5.636-7.401-8.82q3.53.137 7.198.138 3.759 0 7.423-.16a111 111 0 0 1-7.22 8.842m31.91 7.281a10.8 10.8 0 0 1-1.221 4.22 10.8 10.8 0 0 1-2.805 3.387c-3.877 2.237-12.166-.672-21.108-8.331a73 73 0 0 1-3.091-2.802 123 123 0 0 0 10.31-13.04 123 123 0 0 0 16.659-2.556q.374 1.512.663 2.962a44.1 44.1 0 0 1 .588 16.166zm4.46-26.137q-1.016.336-2.074.639a122.6 122.6 0 0 0-6.225-15.516 122.5 122.5 0 0 0 5.99-15.288 78 78 0 0 1 3.652 1.146c11.391 3.899 18.332 9.673 18.332 14.115 0 4.74-7.503 10.888-19.68 14.904z"/><path d="M61.5 43.46c2.173 0 4.297.641 6.104 1.844a10.95 10.95 0 0 1 4.045 4.912c.831 2 1.048 4.2.624 6.323a10.93 10.93 0 0 1-3.01 5.601 11 11 0 0 1-5.627 2.992c-2.131.421-4.34.203-6.347-.627a10.98 10.98 0 0 1-4.927-4.034 10.9 10.9 0 0 1-1.846-6.081 10.92 10.92 0 0 1 3.223-7.726 11 11 0 0 1 7.761-3.205"/></g><defs><clipPath id="a"><path fill="#fff" d="M0 0h123v109H0z"/></clipPath></defs></svg>