<svg xmlns="http://www.w3.org/2000/svg" width="100" height="100" fill="none"><g clip-path="url(#a)"><path fill="#3178C6" d="M92.188 0H7.813A7.813 7.813 0 0 0 0 7.813v84.375A7.813 7.813 0 0 0 7.813 100h84.375A7.813 7.813 0 0 0 100 92.188V7.813A7.813 7.813 0 0 0 92.188 0"/><path fill="#fff" fill-rule="evenodd" d="M58.796 78.31V89.1q2.632 1.348 6.226 2.023t7.575.674q3.88 0 7.373-.742 3.493-.743 6.124-2.444a12.46 12.46 0 0 0 4.168-4.45q1.535-2.748 1.535-6.794 0-2.934-.877-5.142a12 12 0 0 0-2.531-3.928q-1.653-1.719-3.965-3.085-2.31-1.365-5.214-2.579a66 66 0 0 1-3.812-1.703q-1.687-.825-2.868-1.685t-1.823-1.821a3.83 3.83 0 0 1-.64-2.175q0-1.112.573-2.006t1.62-1.534 2.564-.995q1.518-.353 3.374-.353 1.35 0 2.852.202 1.5.203 3.02.624 1.518.42 2.952 1.062 1.435.64 2.65 1.483v-10.08q-2.464-.945-5.383-1.4-2.919-.456-6.698-.455-3.847 0-7.288.826-3.443.825-6.057 2.579a12.9 12.9 0 0 0-4.134 4.468q-1.518 2.713-1.518 6.49 0 4.821 2.784 8.226t8.452 5.766q2.227.91 4.15 1.787t3.324 1.82 2.21 2.057q.81 1.112.81 2.528 0 1.046-.506 1.94-.507.892-1.535 1.55-1.029.657-2.565 1.028-1.535.37-3.593.371-3.51 0-6.951-1.23-3.442-1.231-6.378-3.692M40.813 51.463h13.874v-8.884H16.017v8.884h13.806v39.554h10.991z" clip-rule="evenodd"/></g><defs><clipPath id="a"><path fill="#fff" d="M0 0h100v100H0z"/></clipPath></defs></svg>