<svg xmlns="http://www.w3.org/2000/svg" width="409" height="81" fill="none"><path fill="#000" fill-rule="evenodd" d="M93.352 80.933 46.676.038 0 80.933zm47.079-3.682 39.008-73.536h-16.873L135.658 57.12 108.75 3.715H91.877l39.008 73.536zM406.266 3.715v73.536h-13.968V3.715zm-77.752 46.089q0-8.596 3.601-15.121t10.039-10.047q6.438-3.52 15.06-3.521 7.639 0 13.75 3.314t9.712 9.84 3.71 15.95v3.21h-41.14q.435 6.836 4.037 10.772 3.712 3.832 9.931 3.832 3.929 0 7.201-2.072a12.93 12.93 0 0 0 4.911-5.593l14.297 1.036q-2.62 7.768-9.821 12.429-7.203 4.66-16.588 4.66-8.622 0-15.06-3.521t-10.039-10.046-3.601-15.122m41.467-5.178q-.763-6.733-4.256-9.84-3.491-3.21-8.511-3.21-5.784 0-9.384 3.417-3.603 3.419-4.476 9.633zm-65.036-9.84q3.491 2.797 4.365 7.768l14.403-.725q-.763-6.317-4.473-10.979-3.71-4.66-9.604-7.146-5.782-2.59-12.768-2.59-8.62 0-15.059 3.522-6.438 3.522-10.04 10.047-3.6 6.525-3.6 15.121t3.6 15.122q3.602 6.525 10.04 10.046 6.439 3.521 15.059 3.521 7.202 0 13.095-2.589 5.895-2.692 9.604-7.56 3.71-4.868 4.474-11.393l-14.513-.622q-.764 5.49-4.256 8.493-3.492 2.9-8.404 2.9-6.764 0-10.476-4.66-3.71-4.662-3.709-13.258t3.709-13.257q3.712-4.66 10.476-4.66 4.693 0 8.077 2.9m-70.858-12.43h12.999l.375 10.564q1.384-4.486 3.848-6.967 3.575-3.597 9.966-3.598h5.308v11.308h-5.416q-4.55 0-7.475 1.234a9.02 9.02 0 0 0-4.332 3.906q-1.407 2.673-1.408 6.785v31.663h-13.865zM174.13 34.682q-3.602 6.525-3.602 15.121t3.602 15.122q3.6 6.525 10.039 10.046 6.44 3.521 15.06 3.521 9.384 0 16.586-4.66 7.204-4.661 9.822-12.429l-14.295-1.036a12.93 12.93 0 0 1-4.911 5.593q-3.274 2.072-7.202 2.072-6.22 0-9.931-3.832-3.601-3.936-4.037-10.772h41.141v-3.21q-.11-9.425-3.711-15.95t-9.711-9.84-13.751-3.314q-8.62 0-15.06 3.521-6.438 3.522-10.039 10.047m33.611.103q3.492 3.107 4.256 9.84H185.37q.873-6.214 4.474-9.633 3.601-3.417 9.385-3.418 5.02 0 8.512 3.211" clip-rule="evenodd"/></svg>